<svg xmlns="http://www.w3.org/2000/svg" xmlns:xlink="http://www.w3.org/1999/xlink" width="200" zoomAndPan="magnify" viewBox="0 0 150 44.999999" height="60" preserveAspectRatio="xMidYMid meet" version="1.0"><defs><clipPath id="97deba89cd"><path d="M 3.175781 2 L 146 2 L 146 43.671875 L 3.175781 43.671875 Z M 3.175781 2 " clip-rule="nonzero"/></clipPath><clipPath id="d1bff28a74"><path d="M 3.175781 1.671875 L 146.8125 1.671875 L 146.8125 43 L 3.175781 43 Z M 3.175781 1.671875 " clip-rule="nonzero"/></clipPath></defs><g clip-path="url(#97deba89cd)"><path fill="#545454" d="M 121.464844 2.589844 C 124.152344 2.589844 126.316406 4.769531 126.316406 7.476562 L 126.316406 27.496094 C 131.261719 31.539062 136.9375 35.21875 145.972656 37.207031 C 139.421875 39.050781 132.871094 39.78125 126.316406 38.707031 C 126.316406 41.410156 124.152344 43.589844 121.464844 43.589844 L 7.667969 43.589844 C 4.976562 43.589844 2.8125 41.410156 2.8125 38.707031 L 2.8125 7.476562 C 2.8125 4.769531 4.976562 2.589844 7.667969 2.589844 Z M 121.464844 2.589844 " fill-opacity="1" fill-rule="nonzero"/></g><g clip-path="url(#d1bff28a74)"><path fill="#ffffff" d="M 122.304688 1.746094 C 124.996094 1.746094 127.160156 3.921875 127.160156 6.628906 L 127.160156 26.648438 C 132.105469 30.695312 137.777344 34.375 146.8125 36.363281 C 140.261719 38.203125 133.710938 38.933594 127.160156 37.859375 C 127.160156 40.5625 124.996094 42.742188 122.304688 42.742188 L 8.511719 42.742188 C 5.820312 42.742188 3.65625 40.5625 3.65625 37.859375 L 3.65625 6.628906 C 3.65625 3.921875 5.820312 1.746094 8.511719 1.746094 Z M 122.304688 1.746094 " fill-opacity="1" fill-rule="nonzero"/></g></svg>