<svg xmlns="http://www.w3.org/2000/svg" xmlns:xlink="http://www.w3.org/1999/xlink" width="225" zoomAndPan="magnify" viewBox="0 0 168.75 112.499997" height="150" preserveAspectRatio="xMidYMid meet" version="1.0"><defs><clipPath id="df0a207de4"><path d="M 9.777344 35 L 158.972656 35 L 158.972656 77.71875 L 9.777344 77.71875 Z M 9.777344 35 " clip-rule="nonzero"/></clipPath><clipPath id="ea803a1507"><path d="M 10 34.34375 L 158.972656 34.34375 L 158.972656 77 L 10 77 Z M 10 34.34375 " clip-rule="nonzero"/></clipPath></defs><g clip-path="url(#df0a207de4)"><path fill="#545454" d="M 133.003906 35.296875 C 135.796875 35.296875 138.046875 37.546875 138.046875 40.339844 L 138.046875 61.011719 C 143.183594 65.1875 149.074219 68.988281 158.460938 71.042969 C 151.65625 72.941406 144.851562 73.695312 138.046875 72.585938 C 138.046875 75.378906 135.796875 77.628906 133.003906 77.628906 L 14.816406 77.628906 C 12.023438 77.628906 9.777344 75.378906 9.777344 72.585938 L 9.777344 40.339844 C 9.777344 37.546875 12.023438 35.296875 14.816406 35.296875 Z M 133.003906 35.296875 " fill-opacity="1" fill-rule="nonzero"/></g><g clip-path="url(#ea803a1507)"><path fill="#ffffff" d="M 133.878906 34.425781 C 136.671875 34.425781 138.921875 36.671875 138.921875 39.46875 L 138.921875 60.136719 C 144.058594 64.3125 149.949219 68.113281 159.332031 70.167969 C 152.53125 72.066406 145.726562 72.820312 138.921875 71.710938 C 138.921875 74.503906 136.671875 76.753906 133.878906 76.753906 L 15.691406 76.753906 C 12.898438 76.753906 10.652344 74.503906 10.652344 71.710938 L 10.652344 39.46875 C 10.652344 36.671875 12.898438 34.425781 15.691406 34.425781 Z M 133.878906 34.425781 " fill-opacity="1" fill-rule="nonzero"/></g></svg>