<svg xmlns="http://www.w3.org/2000/svg" xmlns:xlink="http://www.w3.org/1999/xlink" width="500" zoomAndPan="magnify" viewBox="0 0 375 149.999998" height="200" preserveAspectRatio="xMidYMid meet" version="1.0"><defs><g/></defs><g fill="#6e6f6b" fill-opacity="0.349"><g transform="translate(14.81456, 89.505377)"><g><path d="M 41.765625 7.484375 C 40.535156 7.804688 39.441406 7.96875 38.484375 7.96875 C 37.535156 7.96875 36.691406 7.910156 35.953125 7.796875 C 35.222656 7.679688 34.4375 7.453125 33.59375 7.109375 C 32.757812 6.773438 31.972656 6.382812 31.234375 5.9375 C 30.503906 5.5 29.769531 4.957031 29.03125 4.3125 C 27.6875 3.226562 26.460938 2.050781 25.359375 0.78125 C 24.253906 -0.476562 22.128906 -2.847656 18.984375 -6.328125 C 15.847656 -9.804688 13.765625 -12.117188 12.734375 -13.265625 C 11.703125 -14.410156 10.910156 -15.007812 10.359375 -15.0625 L 10.359375 -15.515625 C 12.054688 -15.515625 13.191406 -15.550781 13.765625 -15.625 C 14.335938 -15.695312 14.945312 -15.828125 15.59375 -16.015625 C 16.238281 -16.203125 16.785156 -16.457031 17.234375 -16.78125 C 18.960938 -17.90625 19.828125 -19.757812 19.828125 -22.34375 C 19.828125 -24.488281 19.347656 -26.207031 18.390625 -27.5 C 17.441406 -28.789062 16.097656 -29.453125 14.359375 -29.484375 L 8.90625 -29.484375 L 8.90625 -3.21875 C 8.90625 -2.476562 9.175781 -1.828125 9.71875 -1.265625 C 10.257812 -0.710938 10.925781 -0.4375 11.71875 -0.4375 L 12.25 -0.4375 L 12.296875 0 L 2.640625 0 L 2.640625 -0.4375 L 3.21875 -0.4375 C 3.945312 -0.4375 4.59375 -0.703125 5.15625 -1.234375 C 5.71875 -1.765625 6.007812 -2.410156 6.03125 -3.171875 L 6.03125 -27.625 C 6.007812 -28.382812 5.722656 -29.035156 5.171875 -29.578125 C 4.628906 -30.128906 3.976562 -30.40625 3.21875 -30.40625 L 2.640625 -30.40625 L 2.640625 -30.84375 L 14.546875 -30.84375 C 17.128906 -30.84375 19.207031 -30.113281 20.78125 -28.65625 C 22.351562 -27.207031 23.140625 -25.285156 23.140625 -22.890625 C 23.140625 -20.492188 22.414062 -18.4375 20.96875 -16.71875 C 19.53125 -15 17.769531 -14.140625 15.6875 -14.140625 C 15.6875 -14.140625 15.671875 -14.140625 15.640625 -14.140625 C 16.640625 -13.085938 17.769531 -11.851562 19.03125 -10.4375 C 24.113281 -4.832031 27.375 -1.3125 28.8125 0.125 C 30.25 1.570312 31.519531 2.753906 32.625 3.671875 C 33.726562 4.597656 34.707031 5.285156 35.5625 5.734375 C 37.289062 6.671875 39.007812 7.140625 40.71875 7.140625 C 41.070312 7.140625 41.421875 7.109375 41.765625 7.046875 Z M 41.765625 7.484375 "/></g></g></g><g fill="#6e6f6b" fill-opacity="0.349"><g transform="translate(43.539697, 89.505377)"><g><path d="M 32.390625 -30.40625 L 31.6875 -30.40625 C 31.0625 -30.40625 30.519531 -30.207031 30.0625 -29.8125 C 29.613281 -29.414062 29.375 -28.921875 29.34375 -28.328125 L 29.34375 -10.890625 C 29.34375 -7.453125 28.253906 -4.675781 26.078125 -2.5625 C 23.910156 -0.445312 21.019531 0.609375 17.40625 0.609375 C 13.789062 0.609375 10.859375 -0.4375 8.609375 -2.53125 C 6.367188 -4.632812 5.25 -7.40625 5.25 -10.84375 L 5.25 -28.203125 C 5.25 -29.078125 4.863281 -29.722656 4.09375 -30.140625 C 3.738281 -30.316406 3.34375 -30.40625 2.90625 -30.40625 L 2.203125 -30.40625 L 2.203125 -30.84375 L 11.140625 -30.84375 L 11.140625 -30.40625 L 10.4375 -30.40625 C 9.789062 -30.40625 9.25 -30.207031 8.8125 -29.8125 C 8.375 -29.414062 8.140625 -28.90625 8.109375 -28.28125 L 8.109375 -11.453125 C 8.109375 -8.253906 8.96875 -5.671875 10.6875 -3.703125 C 12.40625 -1.734375 14.703125 -0.75 17.578125 -0.75 C 20.460938 -0.75 22.800781 -1.679688 24.59375 -3.546875 C 26.382812 -5.410156 27.28125 -7.859375 27.28125 -10.890625 L 27.28125 -28.28125 C 27.25 -28.90625 27.007812 -29.414062 26.5625 -29.8125 C 26.125 -30.207031 25.582031 -30.40625 24.9375 -30.40625 L 24.234375 -30.40625 L 24.234375 -30.84375 L 32.390625 -30.84375 Z M 32.390625 -30.40625 "/></g></g></g><g fill="#6e6f6b" fill-opacity="0.349"><g transform="translate(78.124411, 89.505377)"><g><path d="M 20.796875 -30.359375 L 20.796875 -26.65625 L 20.359375 -26.65625 L 20.359375 -27.3125 C 20.359375 -27.90625 20.148438 -28.414062 19.734375 -28.84375 C 19.328125 -29.269531 18.816406 -29.484375 18.203125 -29.484375 L 8.90625 -29.484375 L 8.90625 -15.859375 L 16.34375 -15.859375 C 16.9375 -15.890625 17.4375 -16.109375 17.84375 -16.515625 C 18.257812 -16.929688 18.46875 -17.429688 18.46875 -18.015625 L 18.46875 -18.6875 L 18.90625 -18.6875 L 18.90625 -11.71875 L 18.46875 -11.71875 L 18.46875 -12.375 C 18.46875 -12.96875 18.265625 -13.46875 17.859375 -13.875 C 17.460938 -14.289062 16.972656 -14.515625 16.390625 -14.546875 L 8.90625 -14.546875 L 8.90625 -3.21875 C 8.90625 -2.457031 9.179688 -1.800781 9.734375 -1.25 C 10.296875 -0.707031 10.957031 -0.4375 11.71875 -0.4375 L 12.296875 -0.4375 L 12.296875 0 L 2.640625 0 L 2.640625 -0.4375 L 3.21875 -0.4375 C 3.976562 -0.4375 4.628906 -0.707031 5.171875 -1.25 C 5.722656 -1.800781 6.007812 -2.457031 6.03125 -3.21875 L 6.03125 -27.890625 C 6.03125 -28.597656 5.742188 -29.191406 5.171875 -29.671875 C 4.597656 -30.160156 3.945312 -30.40625 3.21875 -30.40625 L 2.6875 -30.40625 L 2.640625 -30.84375 L 15.546875 -30.84375 C 16.460938 -30.84375 17.457031 -30.929688 18.53125 -31.109375 C 19.601562 -31.285156 20.359375 -31.460938 20.796875 -31.640625 Z M 20.796875 -30.359375 "/></g></g></g><g fill="#6e6f6b" fill-opacity="0.349"><g transform="translate(101.959227, 89.505377)"><g><path d="M 20.796875 -30.359375 L 20.796875 -26.65625 L 20.359375 -26.65625 L 20.359375 -27.3125 C 20.359375 -27.90625 20.148438 -28.414062 19.734375 -28.84375 C 19.328125 -29.269531 18.816406 -29.484375 18.203125 -29.484375 L 8.90625 -29.484375 L 8.90625 -15.859375 L 16.34375 -15.859375 C 16.9375 -15.890625 17.4375 -16.109375 17.84375 -16.515625 C 18.257812 -16.929688 18.46875 -17.429688 18.46875 -18.015625 L 18.46875 -18.6875 L 18.90625 -18.6875 L 18.90625 -11.71875 L 18.46875 -11.71875 L 18.46875 -12.375 C 18.46875 -12.96875 18.265625 -13.46875 17.859375 -13.875 C 17.460938 -14.289062 16.972656 -14.515625 16.390625 -14.546875 L 8.90625 -14.546875 L 8.90625 -3.21875 C 8.90625 -2.457031 9.179688 -1.800781 9.734375 -1.25 C 10.296875 -0.707031 10.957031 -0.4375 11.71875 -0.4375 L 12.296875 -0.4375 L 12.296875 0 L 2.640625 0 L 2.640625 -0.4375 L 3.21875 -0.4375 C 3.976562 -0.4375 4.628906 -0.707031 5.171875 -1.25 C 5.722656 -1.800781 6.007812 -2.457031 6.03125 -3.21875 L 6.03125 -27.890625 C 6.03125 -28.597656 5.742188 -29.191406 5.171875 -29.671875 C 4.597656 -30.160156 3.945312 -30.40625 3.21875 -30.40625 L 2.6875 -30.40625 L 2.640625 -30.84375 L 15.546875 -30.84375 C 16.460938 -30.84375 17.457031 -30.929688 18.53125 -31.109375 C 19.601562 -31.285156 20.359375 -31.460938 20.796875 -31.640625 Z M 20.796875 -30.359375 "/></g></g></g><g fill="#6e6f6b" fill-opacity="0.349"><g transform="translate(125.794042, 89.505377)"><g><path d="M 3.21875 -0.4375 C 3.976562 -0.4375 4.628906 -0.707031 5.171875 -1.25 C 5.722656 -1.800781 6.007812 -2.457031 6.03125 -3.21875 L 6.03125 -27.625 C 6.007812 -28.382812 5.722656 -29.035156 5.171875 -29.578125 C 4.628906 -30.128906 3.976562 -30.40625 3.21875 -30.40625 L 2.640625 -30.40625 L 2.640625 -30.84375 L 12.296875 -30.84375 L 12.296875 -30.40625 L 11.71875 -30.40625 C 10.664062 -30.40625 9.859375 -29.945312 9.296875 -29.03125 C 9.035156 -28.59375 8.90625 -28.125 8.90625 -27.625 L 8.90625 -1.359375 L 15.203125 -1.359375 C 17.378906 -1.359375 19.039062 -1.84375 20.1875 -2.8125 C 21.332031 -3.789062 22.285156 -5.234375 23.046875 -7.140625 L 23.484375 -7.140625 L 20.9375 0 L 2.640625 0 L 2.640625 -0.4375 Z M 3.21875 -0.4375 "/></g></g></g><g fill="#6e6f6b" fill-opacity="0.349"><g transform="translate(150.554055, 89.505377)"><g><path d="M 3.21875 -0.4375 C 3.976562 -0.4375 4.628906 -0.707031 5.171875 -1.25 C 5.722656 -1.800781 6.007812 -2.457031 6.03125 -3.21875 L 6.03125 -27.890625 C 6.03125 -28.597656 5.75 -29.191406 5.1875 -29.671875 C 4.632812 -30.160156 3.976562 -30.40625 3.21875 -30.40625 L 2.6875 -30.40625 L 2.640625 -30.84375 L 15.546875 -30.84375 C 16.460938 -30.84375 17.457031 -30.929688 18.53125 -31.109375 C 19.601562 -31.285156 20.359375 -31.460938 20.796875 -31.640625 L 20.796875 -26.078125 L 20.359375 -26.078125 L 20.359375 -26.875 C 20.359375 -27.582031 20.113281 -28.1875 19.625 -28.6875 C 19.144531 -29.1875 18.566406 -29.453125 17.890625 -29.484375 L 8.90625 -29.484375 L 8.90625 -15.859375 L 16.34375 -15.859375 C 16.9375 -15.890625 17.4375 -16.109375 17.84375 -16.515625 C 18.257812 -16.929688 18.46875 -17.445312 18.46875 -18.0625 L 18.46875 -18.6875 L 18.90625 -18.6875 L 18.90625 -11.71875 L 18.46875 -11.71875 L 18.46875 -12.375 C 18.46875 -12.96875 18.265625 -13.46875 17.859375 -13.875 C 17.460938 -14.289062 16.972656 -14.515625 16.390625 -14.546875 L 8.90625 -14.546875 L 8.90625 -1.359375 L 15.203125 -1.359375 C 17.378906 -1.359375 19.039062 -1.84375 20.1875 -2.8125 C 21.332031 -3.789062 22.285156 -5.234375 23.046875 -7.140625 L 23.484375 -7.140625 L 20.9375 0 L 2.640625 0 L 2.640625 -0.4375 Z M 3.21875 -0.4375 "/></g></g></g><g fill="#6e6f6b" fill-opacity="0.349"><g transform="translate(175.974917, 89.505377)"><g><path d="M 17.578125 -30.84375 C 22.273438 -30.84375 26.085938 -29.425781 29.015625 -26.59375 C 31.941406 -23.757812 33.40625 -20.035156 33.40625 -15.421875 C 33.40625 -10.804688 31.941406 -7.082031 29.015625 -4.25 C 26.085938 -1.414062 22.273438 0 17.578125 0 L 2.640625 0 L 2.640625 -0.4375 L 3.21875 -0.4375 C 3.976562 -0.4375 4.628906 -0.707031 5.171875 -1.25 C 5.722656 -1.800781 6.007812 -2.457031 6.03125 -3.21875 L 6.03125 -27.890625 C 6.03125 -28.597656 5.742188 -29.191406 5.171875 -29.671875 C 4.597656 -30.160156 3.945312 -30.40625 3.21875 -30.40625 L 2.6875 -30.40625 L 2.640625 -30.84375 Z M 8.90625 -29.515625 L 8.90625 -1.328125 L 17.578125 -1.328125 C 20.046875 -1.328125 22.226562 -1.910156 24.125 -3.078125 C 26.019531 -4.253906 27.488281 -5.90625 28.53125 -8.03125 C 29.570312 -10.164062 30.09375 -12.628906 30.09375 -15.421875 C 30.09375 -19.648438 28.9375 -23.054688 26.625 -25.640625 C 24.320312 -28.222656 21.304688 -29.515625 17.578125 -29.515625 Z M 8.90625 -29.515625 "/></g></g></g><g fill="#6e6f6b" fill-opacity="0.349"><g transform="translate(211.528877, 89.505377)"><g/></g></g><g fill="#6e6f6b" fill-opacity="0.349"><g transform="translate(222.543123, 89.505377)"><g><path d="M 41.765625 7.484375 C 40.535156 7.804688 39.441406 7.96875 38.484375 7.96875 C 37.535156 7.96875 36.691406 7.910156 35.953125 7.796875 C 35.222656 7.679688 34.4375 7.453125 33.59375 7.109375 C 32.757812 6.773438 31.972656 6.382812 31.234375 5.9375 C 30.503906 5.5 29.769531 4.957031 29.03125 4.3125 C 27.6875 3.226562 26.460938 2.050781 25.359375 0.78125 C 24.253906 -0.476562 22.128906 -2.847656 18.984375 -6.328125 C 15.847656 -9.804688 13.765625 -12.117188 12.734375 -13.265625 C 11.703125 -14.410156 10.910156 -15.007812 10.359375 -15.0625 L 10.359375 -15.515625 C 12.054688 -15.515625 13.191406 -15.550781 13.765625 -15.625 C 14.335938 -15.695312 14.945312 -15.828125 15.59375 -16.015625 C 16.238281 -16.203125 16.785156 -16.457031 17.234375 -16.78125 C 18.960938 -17.90625 19.828125 -19.757812 19.828125 -22.34375 C 19.828125 -24.488281 19.347656 -26.207031 18.390625 -27.5 C 17.441406 -28.789062 16.097656 -29.453125 14.359375 -29.484375 L 8.90625 -29.484375 L 8.90625 -3.21875 C 8.90625 -2.476562 9.175781 -1.828125 9.71875 -1.265625 C 10.257812 -0.710938 10.925781 -0.4375 11.71875 -0.4375 L 12.25 -0.4375 L 12.296875 0 L 2.640625 0 L 2.640625 -0.4375 L 3.21875 -0.4375 C 3.945312 -0.4375 4.59375 -0.703125 5.15625 -1.234375 C 5.71875 -1.765625 6.007812 -2.410156 6.03125 -3.171875 L 6.03125 -27.625 C 6.007812 -28.382812 5.722656 -29.035156 5.171875 -29.578125 C 4.628906 -30.128906 3.976562 -30.40625 3.21875 -30.40625 L 2.640625 -30.40625 L 2.640625 -30.84375 L 14.546875 -30.84375 C 17.128906 -30.84375 19.207031 -30.113281 20.78125 -28.65625 C 22.351562 -27.207031 23.140625 -25.285156 23.140625 -22.890625 C 23.140625 -20.492188 22.414062 -18.4375 20.96875 -16.71875 C 19.53125 -15 17.769531 -14.140625 15.6875 -14.140625 C 15.6875 -14.140625 15.671875 -14.140625 15.640625 -14.140625 C 16.640625 -13.085938 17.769531 -11.851562 19.03125 -10.4375 C 24.113281 -4.832031 27.375 -1.3125 28.8125 0.125 C 30.25 1.570312 31.519531 2.753906 32.625 3.671875 C 33.726562 4.597656 34.707031 5.285156 35.5625 5.734375 C 37.289062 6.671875 39.007812 7.140625 40.71875 7.140625 C 41.070312 7.140625 41.421875 7.109375 41.765625 7.046875 Z M 41.765625 7.484375 "/></g></g></g><g fill="#6e6f6b" fill-opacity="0.349"><g transform="translate(251.26826, 89.505377)"><g><path d="M 31.546875 -0.4375 L 31.90625 -0.4375 L 31.90625 0 L 21.984375 0 L 21.984375 -0.4375 L 22.390625 -0.4375 C 23.003906 -0.4375 23.460938 -0.632812 23.765625 -1.03125 C 24.078125 -1.425781 24.234375 -1.800781 24.234375 -2.15625 C 24.234375 -2.507812 24.175781 -2.863281 24.0625 -3.21875 L 21.234375 -10.703125 L 9.34375 -10.703125 L 6.390625 -3.171875 C 6.273438 -2.816406 6.21875 -2.46875 6.21875 -2.125 C 6.21875 -1.789062 6.367188 -1.425781 6.671875 -1.03125 C 6.984375 -0.632812 7.445312 -0.4375 8.0625 -0.4375 L 8.46875 -0.4375 L 8.46875 0 L -0.390625 0 L -0.390625 -0.4375 L 0 -0.4375 C 0.738281 -0.4375 1.457031 -0.671875 2.15625 -1.140625 C 2.863281 -1.609375 3.4375 -2.300781 3.875 -3.21875 L 13.84375 -26.921875 C 14.925781 -29.296875 15.46875 -30.804688 15.46875 -31.453125 L 15.859375 -31.453125 L 27.671875 -3.21875 C 28.085938 -2.300781 28.644531 -1.609375 29.34375 -1.140625 C 30.050781 -0.671875 30.785156 -0.4375 31.546875 -0.4375 Z M 9.875 -12.03125 L 20.71875 -12.03125 L 15.421875 -26.171875 Z M 9.875 -12.03125 "/></g></g></g><g fill="#6e6f6b" fill-opacity="0.349"><g transform="translate(282.636821, 89.505377)"><g><path d="M 34.28125 -30.40625 C 33.539062 -30.40625 32.90625 -30.144531 32.375 -29.625 C 31.851562 -29.113281 31.578125 -28.492188 31.546875 -27.765625 L 31.546875 -5.015625 C 31.546875 -3.316406 31.648438 -1.703125 31.859375 -0.171875 L 31.953125 0.609375 L 31.546875 0.609375 L 7.53125 -25.03125 L 7.53125 -3.078125 C 7.53125 -2.347656 7.796875 -1.722656 8.328125 -1.203125 C 8.859375 -0.691406 9.488281 -0.4375 10.21875 -0.4375 L 11.0625 -0.4375 L 11.0625 0 L 1.984375 0 L 1.984375 -0.4375 L 2.8125 -0.4375 C 3.550781 -0.4375 4.1875 -0.691406 4.71875 -1.203125 C 5.25 -1.722656 5.515625 -2.363281 5.515625 -3.125 L 5.515625 -26 C 5.515625 -27.789062 5.410156 -29.390625 5.203125 -30.796875 L 5.109375 -31.5 L 5.546875 -31.5 L 29.5625 -5.859375 L 29.5625 -27.71875 C 29.53125 -28.476562 29.25 -29.113281 28.71875 -29.625 C 28.195312 -30.144531 27.566406 -30.40625 26.828125 -30.40625 L 26 -30.40625 L 26 -30.84375 L 35.078125 -30.84375 L 35.078125 -30.40625 Z M 34.28125 -30.40625 "/></g></g></g><g fill="#6e6f6b" fill-opacity="0.349"><g transform="translate(319.68872, 89.505377)"><g><path d="M 25.953125 -26.921875 C 25.953125 -27.628906 25.703125 -28.238281 25.203125 -28.75 C 24.703125 -29.257812 24.113281 -29.53125 23.4375 -29.5625 L 15.0625 -29.5625 L 15.0625 -3.171875 C 15.09375 -2.410156 15.378906 -1.765625 15.921875 -1.234375 C 16.472656 -0.703125 17.128906 -0.4375 17.890625 -0.4375 L 18.46875 -0.4375 L 18.46875 0 L 8.8125 0 L 8.8125 -0.4375 L 9.390625 -0.4375 C 10.148438 -0.4375 10.800781 -0.703125 11.34375 -1.234375 C 11.882812 -1.765625 12.171875 -2.394531 12.203125 -3.125 L 12.203125 -29.5625 L 3.828125 -29.5625 C 3.128906 -29.53125 2.535156 -29.257812 2.046875 -28.75 C 1.566406 -28.238281 1.328125 -27.628906 1.328125 -26.921875 L 1.328125 -26.171875 L 0.875 -26.125 L 0.875 -31.6875 C 1.320312 -31.507812 2.085938 -31.332031 3.171875 -31.15625 C 4.253906 -30.976562 5.253906 -30.890625 6.171875 -30.890625 L 21.0625 -30.890625 C 22.5 -30.890625 23.691406 -31 24.640625 -31.21875 C 25.597656 -31.4375 26.179688 -31.59375 26.390625 -31.6875 L 26.390625 -26.125 L 25.953125 -26.171875 Z M 25.953125 -26.921875 "/></g></g></g><g fill="#6e6f6b" fill-opacity="0.349"><g transform="translate(346.915917, 89.505377)"><g><path d="M 2.6875 -1.8125 C 2.601562 -2.21875 2.5625 -3.007812 2.5625 -4.1875 C 2.5625 -5.363281 2.78125 -6.613281 3.21875 -7.9375 L 3.609375 -7.9375 C 3.578125 -7.613281 3.5625 -7.289062 3.5625 -6.96875 C 3.5625 -5.175781 4.101562 -3.679688 5.1875 -2.484375 C 6.28125 -1.296875 7.722656 -0.703125 9.515625 -0.703125 C 11.367188 -0.703125 12.890625 -1.257812 14.078125 -2.375 C 15.265625 -3.488281 15.859375 -4.890625 15.859375 -6.578125 C 15.859375 -8.273438 15.285156 -9.648438 14.140625 -10.703125 L 5.6875 -18.546875 C 4.101562 -20.015625 3.3125 -21.789062 3.3125 -23.875 C 3.3125 -25.96875 4.003906 -27.753906 5.390625 -29.234375 C 6.785156 -30.710938 8.675781 -31.453125 11.0625 -31.453125 C 12.175781 -31.453125 13.4375 -31.304688 14.84375 -31.015625 L 16.5625 -31.015625 L 16.5625 -25.59375 L 16.171875 -25.59375 C 16.171875 -26.976562 15.691406 -28.082031 14.734375 -28.90625 C 13.785156 -29.726562 12.5625 -30.140625 11.0625 -30.140625 C 9.5625 -30.140625 8.300781 -29.640625 7.28125 -28.640625 C 6.269531 -27.640625 5.765625 -26.390625 5.765625 -24.890625 C 5.765625 -23.390625 6.351562 -22.097656 7.53125 -21.015625 L 16.21875 -13 C 17.6875 -11.644531 18.421875 -9.789062 18.421875 -7.4375 C 18.421875 -5.09375 17.671875 -3.164062 16.171875 -1.65625 C 14.671875 -0.144531 12.671875 0.609375 10.171875 0.609375 C 8.878906 0.609375 7.503906 0.410156 6.046875 0.015625 C 4.597656 -0.378906 3.476562 -0.988281 2.6875 -1.8125 Z M 2.6875 -1.8125 "/></g></g></g><g fill="#100d0c" fill-opacity="1"><g transform="translate(10.961278, 87.869756)"><g><path d="M 41.765625 7.484375 C 40.535156 7.804688 39.441406 7.96875 38.484375 7.96875 C 37.535156 7.96875 36.691406 7.910156 35.953125 7.796875 C 35.222656 7.679688 34.4375 7.453125 33.59375 7.109375 C 32.757812 6.773438 31.972656 6.382812 31.234375 5.9375 C 30.503906 5.5 29.769531 4.957031 29.03125 4.3125 C 27.6875 3.226562 26.460938 2.050781 25.359375 0.78125 C 24.253906 -0.476562 22.128906 -2.847656 18.984375 -6.328125 C 15.847656 -9.804688 13.765625 -12.117188 12.734375 -13.265625 C 11.703125 -14.410156 10.910156 -15.007812 10.359375 -15.0625 L 10.359375 -15.515625 C 12.054688 -15.515625 13.191406 -15.550781 13.765625 -15.625 C 14.335938 -15.695312 14.945312 -15.828125 15.59375 -16.015625 C 16.238281 -16.203125 16.785156 -16.457031 17.234375 -16.78125 C 18.960938 -17.90625 19.828125 -19.757812 19.828125 -22.34375 C 19.828125 -24.488281 19.347656 -26.207031 18.390625 -27.5 C 17.441406 -28.789062 16.097656 -29.453125 14.359375 -29.484375 L 8.90625 -29.484375 L 8.90625 -3.21875 C 8.90625 -2.476562 9.175781 -1.828125 9.71875 -1.265625 C 10.257812 -0.710938 10.925781 -0.4375 11.71875 -0.4375 L 12.25 -0.4375 L 12.296875 0 L 2.640625 0 L 2.640625 -0.4375 L 3.21875 -0.4375 C 3.945312 -0.4375 4.59375 -0.703125 5.15625 -1.234375 C 5.71875 -1.765625 6.007812 -2.410156 6.03125 -3.171875 L 6.03125 -27.625 C 6.007812 -28.382812 5.722656 -29.035156 5.171875 -29.578125 C 4.628906 -30.128906 3.976562 -30.40625 3.21875 -30.40625 L 2.640625 -30.40625 L 2.640625 -30.84375 L 14.546875 -30.84375 C 17.128906 -30.84375 19.207031 -30.113281 20.78125 -28.65625 C 22.351562 -27.207031 23.140625 -25.285156 23.140625 -22.890625 C 23.140625 -20.492188 22.414062 -18.4375 20.96875 -16.71875 C 19.53125 -15 17.769531 -14.140625 15.6875 -14.140625 C 15.6875 -14.140625 15.671875 -14.140625 15.640625 -14.140625 C 16.640625 -13.085938 17.769531 -11.851562 19.03125 -10.4375 C 24.113281 -4.832031 27.375 -1.3125 28.8125 0.125 C 30.25 1.570312 31.519531 2.753906 32.625 3.671875 C 33.726562 4.597656 34.707031 5.285156 35.5625 5.734375 C 37.289062 6.671875 39.007812 7.140625 40.71875 7.140625 C 41.070312 7.140625 41.421875 7.109375 41.765625 7.046875 Z M 41.765625 7.484375 "/></g></g></g><g fill="#100d0c" fill-opacity="1"><g transform="translate(39.686414, 87.869756)"><g><path d="M 32.390625 -30.40625 L 31.6875 -30.40625 C 31.0625 -30.40625 30.519531 -30.207031 30.0625 -29.8125 C 29.613281 -29.414062 29.375 -28.921875 29.34375 -28.328125 L 29.34375 -10.890625 C 29.34375 -7.453125 28.253906 -4.675781 26.078125 -2.5625 C 23.910156 -0.445312 21.019531 0.609375 17.40625 0.609375 C 13.789062 0.609375 10.859375 -0.4375 8.609375 -2.53125 C 6.367188 -4.632812 5.25 -7.40625 5.25 -10.84375 L 5.25 -28.203125 C 5.25 -29.078125 4.863281 -29.722656 4.09375 -30.140625 C 3.738281 -30.316406 3.34375 -30.40625 2.90625 -30.40625 L 2.203125 -30.40625 L 2.203125 -30.84375 L 11.140625 -30.84375 L 11.140625 -30.40625 L 10.4375 -30.40625 C 9.789062 -30.40625 9.25 -30.207031 8.8125 -29.8125 C 8.375 -29.414062 8.140625 -28.90625 8.109375 -28.28125 L 8.109375 -11.453125 C 8.109375 -8.253906 8.96875 -5.671875 10.6875 -3.703125 C 12.40625 -1.734375 14.703125 -0.75 17.578125 -0.75 C 20.460938 -0.75 22.800781 -1.679688 24.59375 -3.546875 C 26.382812 -5.410156 27.28125 -7.859375 27.28125 -10.890625 L 27.28125 -28.28125 C 27.25 -28.90625 27.007812 -29.414062 26.5625 -29.8125 C 26.125 -30.207031 25.582031 -30.40625 24.9375 -30.40625 L 24.234375 -30.40625 L 24.234375 -30.84375 L 32.390625 -30.84375 Z M 32.390625 -30.40625 "/></g></g></g><g fill="#100d0c" fill-opacity="1"><g transform="translate(74.271129, 87.869756)"><g><path d="M 20.796875 -30.359375 L 20.796875 -26.65625 L 20.359375 -26.65625 L 20.359375 -27.3125 C 20.359375 -27.90625 20.148438 -28.414062 19.734375 -28.84375 C 19.328125 -29.269531 18.816406 -29.484375 18.203125 -29.484375 L 8.90625 -29.484375 L 8.90625 -15.859375 L 16.34375 -15.859375 C 16.9375 -15.890625 17.4375 -16.109375 17.84375 -16.515625 C 18.257812 -16.929688 18.46875 -17.429688 18.46875 -18.015625 L 18.46875 -18.6875 L 18.90625 -18.6875 L 18.90625 -11.71875 L 18.46875 -11.71875 L 18.46875 -12.375 C 18.46875 -12.96875 18.265625 -13.46875 17.859375 -13.875 C 17.460938 -14.289062 16.972656 -14.515625 16.390625 -14.546875 L 8.90625 -14.546875 L 8.90625 -3.21875 C 8.90625 -2.457031 9.179688 -1.800781 9.734375 -1.25 C 10.296875 -0.707031 10.957031 -0.4375 11.71875 -0.4375 L 12.296875 -0.4375 L 12.296875 0 L 2.640625 0 L 2.640625 -0.4375 L 3.21875 -0.4375 C 3.976562 -0.4375 4.628906 -0.707031 5.171875 -1.25 C 5.722656 -1.800781 6.007812 -2.457031 6.03125 -3.21875 L 6.03125 -27.890625 C 6.03125 -28.597656 5.742188 -29.191406 5.171875 -29.671875 C 4.597656 -30.160156 3.945312 -30.40625 3.21875 -30.40625 L 2.6875 -30.40625 L 2.640625 -30.84375 L 15.546875 -30.84375 C 16.460938 -30.84375 17.457031 -30.929688 18.53125 -31.109375 C 19.601562 -31.285156 20.359375 -31.460938 20.796875 -31.640625 Z M 20.796875 -30.359375 "/></g></g></g><g fill="#100d0c" fill-opacity="1"><g transform="translate(98.105944, 87.869756)"><g><path d="M 20.796875 -30.359375 L 20.796875 -26.65625 L 20.359375 -26.65625 L 20.359375 -27.3125 C 20.359375 -27.90625 20.148438 -28.414062 19.734375 -28.84375 C 19.328125 -29.269531 18.816406 -29.484375 18.203125 -29.484375 L 8.90625 -29.484375 L 8.90625 -15.859375 L 16.34375 -15.859375 C 16.9375 -15.890625 17.4375 -16.109375 17.84375 -16.515625 C 18.257812 -16.929688 18.46875 -17.429688 18.46875 -18.015625 L 18.46875 -18.6875 L 18.90625 -18.6875 L 18.90625 -11.71875 L 18.46875 -11.71875 L 18.46875 -12.375 C 18.46875 -12.96875 18.265625 -13.46875 17.859375 -13.875 C 17.460938 -14.289062 16.972656 -14.515625 16.390625 -14.546875 L 8.90625 -14.546875 L 8.90625 -3.21875 C 8.90625 -2.457031 9.179688 -1.800781 9.734375 -1.25 C 10.296875 -0.707031 10.957031 -0.4375 11.71875 -0.4375 L 12.296875 -0.4375 L 12.296875 0 L 2.640625 0 L 2.640625 -0.4375 L 3.21875 -0.4375 C 3.976562 -0.4375 4.628906 -0.707031 5.171875 -1.25 C 5.722656 -1.800781 6.007812 -2.457031 6.03125 -3.21875 L 6.03125 -27.890625 C 6.03125 -28.597656 5.742188 -29.191406 5.171875 -29.671875 C 4.597656 -30.160156 3.945312 -30.40625 3.21875 -30.40625 L 2.6875 -30.40625 L 2.640625 -30.84375 L 15.546875 -30.84375 C 16.460938 -30.84375 17.457031 -30.929688 18.53125 -31.109375 C 19.601562 -31.285156 20.359375 -31.460938 20.796875 -31.640625 Z M 20.796875 -30.359375 "/></g></g></g><g fill="#100d0c" fill-opacity="1"><g transform="translate(121.94076, 87.869756)"><g><path d="M 3.21875 -0.4375 C 3.976562 -0.4375 4.628906 -0.707031 5.171875 -1.25 C 5.722656 -1.800781 6.007812 -2.457031 6.03125 -3.21875 L 6.03125 -27.625 C 6.007812 -28.382812 5.722656 -29.035156 5.171875 -29.578125 C 4.628906 -30.128906 3.976562 -30.40625 3.21875 -30.40625 L 2.640625 -30.40625 L 2.640625 -30.84375 L 12.296875 -30.84375 L 12.296875 -30.40625 L 11.71875 -30.40625 C 10.664062 -30.40625 9.859375 -29.945312 9.296875 -29.03125 C 9.035156 -28.59375 8.90625 -28.125 8.90625 -27.625 L 8.90625 -1.359375 L 15.203125 -1.359375 C 17.378906 -1.359375 19.039062 -1.84375 20.1875 -2.8125 C 21.332031 -3.789062 22.285156 -5.234375 23.046875 -7.140625 L 23.484375 -7.140625 L 20.9375 0 L 2.640625 0 L 2.640625 -0.4375 Z M 3.21875 -0.4375 "/></g></g></g><g fill="#100d0c" fill-opacity="1"><g transform="translate(146.700772, 87.869756)"><g><path d="M 3.21875 -0.4375 C 3.976562 -0.4375 4.628906 -0.707031 5.171875 -1.25 C 5.722656 -1.800781 6.007812 -2.457031 6.03125 -3.21875 L 6.03125 -27.890625 C 6.03125 -28.597656 5.75 -29.191406 5.1875 -29.671875 C 4.632812 -30.160156 3.976562 -30.40625 3.21875 -30.40625 L 2.6875 -30.40625 L 2.640625 -30.84375 L 15.546875 -30.84375 C 16.460938 -30.84375 17.457031 -30.929688 18.53125 -31.109375 C 19.601562 -31.285156 20.359375 -31.460938 20.796875 -31.640625 L 20.796875 -26.078125 L 20.359375 -26.078125 L 20.359375 -26.875 C 20.359375 -27.582031 20.113281 -28.1875 19.625 -28.6875 C 19.144531 -29.1875 18.566406 -29.453125 17.890625 -29.484375 L 8.90625 -29.484375 L 8.90625 -15.859375 L 16.34375 -15.859375 C 16.9375 -15.890625 17.4375 -16.109375 17.84375 -16.515625 C 18.257812 -16.929688 18.46875 -17.445312 18.46875 -18.0625 L 18.46875 -18.6875 L 18.90625 -18.6875 L 18.90625 -11.71875 L 18.46875 -11.71875 L 18.46875 -12.375 C 18.46875 -12.96875 18.265625 -13.46875 17.859375 -13.875 C 17.460938 -14.289062 16.972656 -14.515625 16.390625 -14.546875 L 8.90625 -14.546875 L 8.90625 -1.359375 L 15.203125 -1.359375 C 17.378906 -1.359375 19.039062 -1.84375 20.1875 -2.8125 C 21.332031 -3.789062 22.285156 -5.234375 23.046875 -7.140625 L 23.484375 -7.140625 L 20.9375 0 L 2.640625 0 L 2.640625 -0.4375 Z M 3.21875 -0.4375 "/></g></g></g><g fill="#100d0c" fill-opacity="1"><g transform="translate(172.121635, 87.869756)"><g><path d="M 17.578125 -30.84375 C 22.273438 -30.84375 26.085938 -29.425781 29.015625 -26.59375 C 31.941406 -23.757812 33.40625 -20.035156 33.40625 -15.421875 C 33.40625 -10.804688 31.941406 -7.082031 29.015625 -4.25 C 26.085938 -1.414062 22.273438 0 17.578125 0 L 2.640625 0 L 2.640625 -0.4375 L 3.21875 -0.4375 C 3.976562 -0.4375 4.628906 -0.707031 5.171875 -1.25 C 5.722656 -1.800781 6.007812 -2.457031 6.03125 -3.21875 L 6.03125 -27.890625 C 6.03125 -28.597656 5.742188 -29.191406 5.171875 -29.671875 C 4.597656 -30.160156 3.945312 -30.40625 3.21875 -30.40625 L 2.6875 -30.40625 L 2.640625 -30.84375 Z M 8.90625 -29.515625 L 8.90625 -1.328125 L 17.578125 -1.328125 C 20.046875 -1.328125 22.226562 -1.910156 24.125 -3.078125 C 26.019531 -4.253906 27.488281 -5.90625 28.53125 -8.03125 C 29.570312 -10.164062 30.09375 -12.628906 30.09375 -15.421875 C 30.09375 -19.648438 28.9375 -23.054688 26.625 -25.640625 C 24.320312 -28.222656 21.304688 -29.515625 17.578125 -29.515625 Z M 8.90625 -29.515625 "/></g></g></g><g fill="#100d0c" fill-opacity="1"><g transform="translate(207.675594, 87.869756)"><g/></g></g><g fill="#100d0c" fill-opacity="1"><g transform="translate(218.689841, 87.869756)"><g><path d="M 41.765625 7.484375 C 40.535156 7.804688 39.441406 7.96875 38.484375 7.96875 C 37.535156 7.96875 36.691406 7.910156 35.953125 7.796875 C 35.222656 7.679688 34.4375 7.453125 33.59375 7.109375 C 32.757812 6.773438 31.972656 6.382812 31.234375 5.9375 C 30.503906 5.5 29.769531 4.957031 29.03125 4.3125 C 27.6875 3.226562 26.460938 2.050781 25.359375 0.78125 C 24.253906 -0.476562 22.128906 -2.847656 18.984375 -6.328125 C 15.847656 -9.804688 13.765625 -12.117188 12.734375 -13.265625 C 11.703125 -14.410156 10.910156 -15.007812 10.359375 -15.0625 L 10.359375 -15.515625 C 12.054688 -15.515625 13.191406 -15.550781 13.765625 -15.625 C 14.335938 -15.695312 14.945312 -15.828125 15.59375 -16.015625 C 16.238281 -16.203125 16.785156 -16.457031 17.234375 -16.78125 C 18.960938 -17.90625 19.828125 -19.757812 19.828125 -22.34375 C 19.828125 -24.488281 19.347656 -26.207031 18.390625 -27.5 C 17.441406 -28.789062 16.097656 -29.453125 14.359375 -29.484375 L 8.90625 -29.484375 L 8.90625 -3.21875 C 8.90625 -2.476562 9.175781 -1.828125 9.71875 -1.265625 C 10.257812 -0.710938 10.925781 -0.4375 11.71875 -0.4375 L 12.25 -0.4375 L 12.296875 0 L 2.640625 0 L 2.640625 -0.4375 L 3.21875 -0.4375 C 3.945312 -0.4375 4.59375 -0.703125 5.15625 -1.234375 C 5.71875 -1.765625 6.007812 -2.410156 6.03125 -3.171875 L 6.03125 -27.625 C 6.007812 -28.382812 5.722656 -29.035156 5.171875 -29.578125 C 4.628906 -30.128906 3.976562 -30.40625 3.21875 -30.40625 L 2.640625 -30.40625 L 2.640625 -30.84375 L 14.546875 -30.84375 C 17.128906 -30.84375 19.207031 -30.113281 20.78125 -28.65625 C 22.351562 -27.207031 23.140625 -25.285156 23.140625 -22.890625 C 23.140625 -20.492188 22.414062 -18.4375 20.96875 -16.71875 C 19.53125 -15 17.769531 -14.140625 15.6875 -14.140625 C 15.6875 -14.140625 15.671875 -14.140625 15.640625 -14.140625 C 16.640625 -13.085938 17.769531 -11.851562 19.03125 -10.4375 C 24.113281 -4.832031 27.375 -1.3125 28.8125 0.125 C 30.25 1.570312 31.519531 2.753906 32.625 3.671875 C 33.726562 4.597656 34.707031 5.285156 35.5625 5.734375 C 37.289062 6.671875 39.007812 7.140625 40.71875 7.140625 C 41.070312 7.140625 41.421875 7.109375 41.765625 7.046875 Z M 41.765625 7.484375 "/></g></g></g><g fill="#100d0c" fill-opacity="1"><g transform="translate(247.414978, 87.869756)"><g><path d="M 31.546875 -0.4375 L 31.90625 -0.4375 L 31.90625 0 L 21.984375 0 L 21.984375 -0.4375 L 22.390625 -0.4375 C 23.003906 -0.4375 23.460938 -0.632812 23.765625 -1.03125 C 24.078125 -1.425781 24.234375 -1.800781 24.234375 -2.15625 C 24.234375 -2.507812 24.175781 -2.863281 24.0625 -3.21875 L 21.234375 -10.703125 L 9.34375 -10.703125 L 6.390625 -3.171875 C 6.273438 -2.816406 6.21875 -2.46875 6.21875 -2.125 C 6.21875 -1.789062 6.367188 -1.425781 6.671875 -1.03125 C 6.984375 -0.632812 7.445312 -0.4375 8.0625 -0.4375 L 8.46875 -0.4375 L 8.46875 0 L -0.390625 0 L -0.390625 -0.4375 L 0 -0.4375 C 0.738281 -0.4375 1.457031 -0.671875 2.15625 -1.140625 C 2.863281 -1.609375 3.4375 -2.300781 3.875 -3.21875 L 13.84375 -26.921875 C 14.925781 -29.296875 15.46875 -30.804688 15.46875 -31.453125 L 15.859375 -31.453125 L 27.671875 -3.21875 C 28.085938 -2.300781 28.644531 -1.609375 29.34375 -1.140625 C 30.050781 -0.671875 30.785156 -0.4375 31.546875 -0.4375 Z M 9.875 -12.03125 L 20.71875 -12.03125 L 15.421875 -26.171875 Z M 9.875 -12.03125 "/></g></g></g><g fill="#100d0c" fill-opacity="1"><g transform="translate(278.783538, 87.869756)"><g><path d="M 34.28125 -30.40625 C 33.539062 -30.40625 32.90625 -30.144531 32.375 -29.625 C 31.851562 -29.113281 31.578125 -28.492188 31.546875 -27.765625 L 31.546875 -5.015625 C 31.546875 -3.316406 31.648438 -1.703125 31.859375 -0.171875 L 31.953125 0.609375 L 31.546875 0.609375 L 7.53125 -25.03125 L 7.53125 -3.078125 C 7.53125 -2.347656 7.796875 -1.722656 8.328125 -1.203125 C 8.859375 -0.691406 9.488281 -0.4375 10.21875 -0.4375 L 11.0625 -0.4375 L 11.0625 0 L 1.984375 0 L 1.984375 -0.4375 L 2.8125 -0.4375 C 3.550781 -0.4375 4.1875 -0.691406 4.71875 -1.203125 C 5.25 -1.722656 5.515625 -2.363281 5.515625 -3.125 L 5.515625 -26 C 5.515625 -27.789062 5.410156 -29.390625 5.203125 -30.796875 L 5.109375 -31.5 L 5.546875 -31.5 L 29.5625 -5.859375 L 29.5625 -27.71875 C 29.53125 -28.476562 29.25 -29.113281 28.71875 -29.625 C 28.195312 -30.144531 27.566406 -30.40625 26.828125 -30.40625 L 26 -30.40625 L 26 -30.84375 L 35.078125 -30.84375 L 35.078125 -30.40625 Z M 34.28125 -30.40625 "/></g></g></g><g fill="#100d0c" fill-opacity="1"><g transform="translate(315.835438, 87.869756)"><g><path d="M 25.953125 -26.921875 C 25.953125 -27.628906 25.703125 -28.238281 25.203125 -28.75 C 24.703125 -29.257812 24.113281 -29.53125 23.4375 -29.5625 L 15.0625 -29.5625 L 15.0625 -3.171875 C 15.09375 -2.410156 15.378906 -1.765625 15.921875 -1.234375 C 16.472656 -0.703125 17.128906 -0.4375 17.890625 -0.4375 L 18.46875 -0.4375 L 18.46875 0 L 8.8125 0 L 8.8125 -0.4375 L 9.390625 -0.4375 C 10.148438 -0.4375 10.800781 -0.703125 11.34375 -1.234375 C 11.882812 -1.765625 12.171875 -2.394531 12.203125 -3.125 L 12.203125 -29.5625 L 3.828125 -29.5625 C 3.128906 -29.53125 2.535156 -29.257812 2.046875 -28.75 C 1.566406 -28.238281 1.328125 -27.628906 1.328125 -26.921875 L 1.328125 -26.171875 L 0.875 -26.125 L 0.875 -31.6875 C 1.320312 -31.507812 2.085938 -31.332031 3.171875 -31.15625 C 4.253906 -30.976562 5.253906 -30.890625 6.171875 -30.890625 L 21.0625 -30.890625 C 22.5 -30.890625 23.691406 -31 24.640625 -31.21875 C 25.597656 -31.4375 26.179688 -31.59375 26.390625 -31.6875 L 26.390625 -26.125 L 25.953125 -26.171875 Z M 25.953125 -26.921875 "/></g></g></g><g fill="#100d0c" fill-opacity="1"><g transform="translate(343.062635, 87.869756)"><g><path d="M 2.6875 -1.8125 C 2.601562 -2.21875 2.5625 -3.007812 2.5625 -4.1875 C 2.5625 -5.363281 2.78125 -6.613281 3.21875 -7.9375 L 3.609375 -7.9375 C 3.578125 -7.613281 3.5625 -7.289062 3.5625 -6.96875 C 3.5625 -5.175781 4.101562 -3.679688 5.1875 -2.484375 C 6.28125 -1.296875 7.722656 -0.703125 9.515625 -0.703125 C 11.367188 -0.703125 12.890625 -1.257812 14.078125 -2.375 C 15.265625 -3.488281 15.859375 -4.890625 15.859375 -6.578125 C 15.859375 -8.273438 15.285156 -9.648438 14.140625 -10.703125 L 5.6875 -18.546875 C 4.101562 -20.015625 3.3125 -21.789062 3.3125 -23.875 C 3.3125 -25.96875 4.003906 -27.753906 5.390625 -29.234375 C 6.785156 -30.710938 8.675781 -31.453125 11.0625 -31.453125 C 12.175781 -31.453125 13.4375 -31.304688 14.84375 -31.015625 L 16.5625 -31.015625 L 16.5625 -25.59375 L 16.171875 -25.59375 C 16.171875 -26.976562 15.691406 -28.082031 14.734375 -28.90625 C 13.785156 -29.726562 12.5625 -30.140625 11.0625 -30.140625 C 9.5625 -30.140625 8.300781 -29.640625 7.28125 -28.640625 C 6.269531 -27.640625 5.765625 -26.390625 5.765625 -24.890625 C 5.765625 -23.390625 6.351562 -22.097656 7.53125 -21.015625 L 16.21875 -13 C 17.6875 -11.644531 18.421875 -9.789062 18.421875 -7.4375 C 18.421875 -5.09375 17.671875 -3.164062 16.171875 -1.65625 C 14.671875 -0.144531 12.671875 0.609375 10.171875 0.609375 C 8.878906 0.609375 7.503906 0.410156 6.046875 0.015625 C 4.597656 -0.378906 3.476562 -0.988281 2.6875 -1.8125 Z M 2.6875 -1.8125 "/></g></g></g></svg>