<svg xmlns="http://www.w3.org/2000/svg" xmlns:xlink="http://www.w3.org/1999/xlink" width="225" zoomAndPan="magnify" viewBox="0 0 168.75 112.499997" height="150" preserveAspectRatio="xMidYMid meet" version="1.0"><defs><clipPath id="e006b3ff0b"><path d="M 10 35 L 158.972656 35 L 158.972656 77.71875 L 10 77.71875 Z M 10 35 " clip-rule="nonzero"/></clipPath><clipPath id="9ce267e057"><path d="M 9.414062 34.34375 L 158.972656 34.34375 L 158.972656 77 L 9.414062 77 Z M 9.414062 34.34375 " clip-rule="nonzero"/></clipPath></defs><g clip-path="url(#e006b3ff0b)"><path fill="#545454" d="M 35.742188 35.296875 C 32.949219 35.296875 30.699219 37.546875 30.699219 40.339844 L 30.699219 61.011719 C 25.566406 65.1875 19.671875 68.988281 10.289062 71.042969 C 17.09375 72.941406 23.894531 73.695312 30.699219 72.585938 C 30.699219 75.378906 32.949219 77.628906 35.742188 77.628906 L 153.929688 77.628906 C 156.722656 77.628906 158.972656 75.378906 158.972656 72.585938 L 158.972656 40.339844 C 158.972656 37.546875 156.722656 35.296875 153.929688 35.296875 Z M 35.742188 35.296875 " fill-opacity="1" fill-rule="nonzero"/></g><g clip-path="url(#9ce267e057)"><path fill="#ffffff" d="M 34.867188 34.425781 C 32.074219 34.425781 29.824219 36.671875 29.824219 39.46875 L 29.824219 60.136719 C 24.691406 64.3125 18.796875 68.113281 9.414062 70.167969 C 16.21875 72.066406 23.019531 72.820312 29.824219 71.710938 C 29.824219 74.503906 32.074219 76.753906 34.867188 76.753906 L 153.054688 76.753906 C 155.847656 76.753906 158.097656 74.503906 158.097656 71.710938 L 158.097656 39.46875 C 158.097656 36.671875 155.847656 34.425781 153.054688 34.425781 Z M 34.867188 34.425781 " fill-opacity="1" fill-rule="nonzero"/></g></svg>